# xmcd CD database file
#
# Track frame offsets:
#	150
#	24545
#	42737
#	79057
#	105987
#	150058
#	187123
#	225799
#	249885
#	275595
#
# Disc length: 4232 seconds
#
# Revision: 0
# Processed by: cddbd v1.5.2PL0 Copyright (c) Steve Scherf et al.
# Submitted via: CDex 1.70beta2
#
DISCID=6c10860a
DTITLE=Don Faton - Coeurs à Corps
DYEAR=2008
DGENRE=Jazz
TTITLE0=Dona Isa
TTITLE1=François
TTITLE2=La fièvre monte
TTITLE3=Anticonstitutionnellement concupiscent
TTITLE4=Un an dans les étoiles
TTITLE5=Filles de tous les pays unsissez-vous !
TTITLE6=Aztek Tatar
TTITLE7=Coeur, trèfle
TTITLE8=Hey ! Joe ! Joe !
TTITLE9=Didier et moi
EXTD=YEAR: 2008
EXTT0=
EXTT1=
EXTT2=
EXTT3=
EXTT4=
EXTT5=
EXTT6=
EXTT7=
EXTT8=
EXTT9=
PLAYORDER=
